<?xml version="1.0" encoding="UTF-8" standalone="no"?>
<svg width="58px" height="58px" viewBox="0 0 58 58" version="1.1" xmlns="http://www.w3.org/2000/svg" xmlns:xlink="http://www.w3.org/1999/xlink" xmlns:sketch="http://www.bohemiancoding.com/sketch/ns">
    <!-- Generator: Sketch 3.4.2 (15855) - http://www.bohemiancoding.com/sketch -->
    <title>Group</title>
    <desc>Created with Sketch.</desc>
    <defs></defs>
    <g id="Page-1" stroke="none" stroke-width="1" fill="none" fill-rule="evenodd" sketch:type="MSPage">
        <g id="play" sketch:type="MSLayerGroup" fill-opacity="0.801545516" fill="#FFFFFF">
            <g id="Page-1" sketch:type="MSShapeGroup">
                <g id="noun_121816_cc">
                    <g id="Group">
                        <path d="M57.099,29 C57.099,13.506 44.494,0.901 29,0.901 C13.506,0.901 0.901,13.506 0.901,29 C0.901,44.494 13.506,57.099 29,57.099 C44.494,57.099 57.099,44.494 57.099,29 L57.099,29 L57.099,29 Z M5.499,29 C5.499,16.041 16.042,5.499 29,5.499 C41.959,5.499 52.502,16.042 52.502,29 C52.502,41.959 41.959,52.502 29,52.502 C16.041,52.501 5.499,41.959 5.499,29 L5.499,29 L5.499,29 Z" id="Shape"></path>
                        <path d="M38.51,25.24 L28.686,17.606 C26.024,15.538 23.846,16.604 23.846,19.975 L23.846,38.026 C23.846,41.397 26.024,42.463 28.686,40.395 L38.51,32.762 C41.173,30.693 41.172,27.308 38.51,25.24 L38.51,25.24 L38.51,25.24 Z" id="Shape"></path>
                    </g>
                </g>
            </g>
        </g>
    </g>
</svg>